<svg height="512" viewBox="0 0 512 512" width="512" xmlns="http://www.w3.org/2000/svg" xmlns:xlink="http://www.w3.org/1999/xlink"><linearGradient id="linear-gradient" gradientUnits="userSpaceOnUse" x1="99.584" x2="452.171" y1="479.498" y2="126.91"><stop offset="0" stop-color="#41dfd0"/><stop offset="1" stop-color="#ee83ef"/></linearGradient><g id="gradient"><path d="m310.133 320.947 4.867 9.736a57.769 57.769 0 0 0 51.955 32.111 58.369 58.369 0 0 0 46.471-23.235l8.973-11.965a8 8 0 0 0 -1.6-11.2 63.279 63.279 0 0 1 -24.86-56.606l6.424-64.242a269.21 269.21 0 0 0 -12.556-112.632l-3.02-9.058a81.871 81.871 0 0 0 -49.134-50.986 108.622 108.622 0 0 0 -67.525-2.719 55.981 55.981 0 0 0 -35.149 29.739 8.182 8.182 0 0 0 -.318.768 89.193 89.193 0 0 0 -56.608 43.973q-2.519.94-5.024 1.941a8 8 0 0 0 -5.029 7.428l-.209 72.005a32 32 0 0 0 .209 63.995h3.057a152.832 152.832 0 0 0 26.743 58.259 71.938 71.938 0 0 0 22.9 19.83l-2.447 14.682a26.169 26.169 0 0 1 -13.319 18.618l-18.885 10.169a141.758 141.758 0 0 0 -74.649 124.971v1.471a8 8 0 0 0 8 8h272a8 8 0 0 0 8-8v-1.471a141.757 141.757 0 0 0 -74.644-124.971l-18.886-10.169a26.173 26.173 0 0 1 -13.32-18.618l-2.45-14.681a72.383 72.383 0 0 0 15.178-11.138 58.234 58.234 0 0 0 4.855 13.995zm-35.61-285.411a92.523 92.523 0 0 1 57.513 2.315 65.932 65.932 0 0 1 39.571 41.065l3.02 9.059a253.286 253.286 0 0 1 11.817 105.979l-6.423 64.246a79.428 79.428 0 0 0 25.027 65.867l-4.422 5.9a42.287 42.287 0 0 1 -33.67 16.835 41.855 41.855 0 0 1 -37.644-23.267l-4.869-9.736a42.3 42.3 0 0 1 -4.443-18.829l-.209-6.572a153.378 153.378 0 0 0 19.95-48.4h4.259a32 32 0 0 0 0-64h-.209l.209-71.998a8 8 0 0 0 -5.029-7.428q-2.51-1-5.035-1.945a88.2 88.2 0 0 0 -77.936-46.627c-.3 0-.592.013-.889.016a39.987 39.987 0 0 1 19.412-12.48zm-90.979 160.075.387-30.685a209.068 209.068 0 0 1 23.1-7.086 185.838 185.838 0 0 1 -23.487 37.771zm.456-47.7v-38.421a206.424 206.424 0 0 1 144 0v38.425a222.21 222.21 0 0 0 -144 0zm159.59 44.089h.41a16 16 0 0 1 0 32h-1.572a150 150 0 0 0 .971-16.893zm-38.641-34.164a209.073 209.073 0 0 1 22.982 7.04l-.374 29.63a182.035 182.035 0 0 1 -22.608-36.67zm-48.949-93.836a72.234 72.234 0 0 1 52.915 22.929 221.859 221.859 0 0 0 -105.7-.034 72.942 72.942 0 0 1 52.785-22.895zm-88 160a15.992 15.992 0 0 1 -.411-31.979l-.189 14.937v.1a149.926 149.926 0 0 0 .971 16.942zm-34.581 224h32.238a84.792 84.792 0 0 0 0 32h-38.09a125.947 125.947 0 0 1 5.852-32zm46.709 16h151.744a68.273 68.273 0 0 1 -1.9 16h-147.945a68.273 68.273 0 0 1 -1.899-16zm166.214 16a84.792 84.792 0 0 0 0-32h31.036a125.86 125.86 0 0 1 5.852 32zm24.652-48h-34.994a8 8 0 0 0 -7.59 10.53q.9 2.7 1.563 5.47h-147.946q.666-2.764 1.563-5.47a8 8 0 0 0 -7.59-10.53h-36.195a125.734 125.734 0 0 1 47.2-52.519 57.377 57.377 0 0 0 53.318 36.519h31.477a57.413 57.413 0 0 0 53.046-35.858 125.733 125.733 0 0 1 46.148 51.858zm-94.226-96.6a42.283 42.283 0 0 0 21.516 30.076l12.465 6.711a41.347 41.347 0 0 1 -38.949 27.813h-31.477a41.312 41.312 0 0 1 -39.147-28.418l11.339-6.105a42.285 42.285 0 0 0 21.516-30.077l1.846-11.076a71.077 71.077 0 0 0 39.044 0zm-21.368-24.341a56.266 56.266 0 0 1 -44.8-22.4 136.958 136.958 0 0 1 -26.621-69.388 200.072 200.072 0 0 0 22.6-28.1 26.815 26.815 0 0 1 14.682 2.516l6.989 3.411a8 8 0 0 0 7.016-14.379l-6.99-3.41a42.659 42.659 0 0 0 -12.244-3.819 199.208 199.208 0 0 0 10.012-21.361 205.744 205.744 0 0 1 59.9 0 199.946 199.946 0 0 0 9.948 21.322 42.709 42.709 0 0 0 -12.329 2.319l-7.345 2.553a8 8 0 1 0 5.252 15.114l7.344-2.553a26.771 26.771 0 0 1 17.752.094 200.052 200.052 0 0 0 19.834 24.622c.171.181.351.348.534.51a136.974 136.974 0 0 1 -26.734 70.549 56.27 56.27 0 0 1 -44.8 22.4zm-30-96a9 9 0 1 1 -9-9 9 9 0 0 1 9 9zm78-1a9 9 0 1 1 -9-9 9 9 0 0 1 9 9zm-64 33v-7.058a8 8 0 0 1 8-8 8 8 0 0 1 7.945 7.059h.058a8 8 0 0 1 0 16h-8a8 8 0 0 1 -8.003-7.997zm37.654 11.28a8 8 0 0 1 0 11.314 35.082 35.082 0 0 1 -24.972 10.347h-4.682a8 8 0 1 1 0-16h4.686a19.183 19.183 0 0 0 13.656-5.657 8 8 0 0 1 11.311 0z" fill="url(#linear-gradient)"/></g></svg>