<?xml version="1.0" encoding="UTF-8"?>
<svg xmlns="http://www.w3.org/2000/svg" xmlns:xlink="http://www.w3.org/1999/xlink" viewBox="0 0 512 512" width="512" height="512"><defs><linearGradient id="linear-gradient" x1="91.104" y1="478.244" x2="420.896" y2="148.452" gradientUnits="userSpaceOnUse"><stop offset="0" stop-color="#41dfd0"/><stop offset="1" stop-color="#ee83ef"/></linearGradient></defs><g id="gradient"><path d="M112,495.827H400a8,8,0,0,0,8-8v-5.836a127.929,127.929,0,0,0-64.54-111.14,7.956,7.956,0,0,0-3.344-9.711l-40-24a7.989,7.989,0,0,0-6.185-.868c-.133.036-.261.084-.391.127l-1.7-10.174a71.89,71.89,0,0,0,21.757-19.2q4.008-5.344,7.514-11.026h32.406a44,44,0,0,0,43.9-46.927L391.965,167.2a136.267,136.267,0,0,0-271.93,0l-5.458,81.871A44,44,0,0,0,158.479,296h32.406q3.51,5.67,7.514,11.026a71.91,71.91,0,0,0,21.758,19.2l-1.7,10.173c-.13-.042-.258-.091-.391-.127a8,8,0,0,0-6.185.868l-40,24a7.956,7.956,0,0,0-3.344,9.711A127.929,127.929,0,0,0,104,481.991v5.836A8,8,0,0,0,112,495.827Zm263.272-72.718a111.9,111.9,0,0,1,16.707,56.718H358.855a57.583,57.583,0,0,0-4.947-37.2l-2.256-4.512V424a8,8,0,0,0-16,0v16a7.994,7.994,0,0,0,.845,3.578l3.1,6.2a41.616,41.616,0,0,1,2.8,30.049H264s-.033-34.369-.041-35.519l44.479-29.652a8,8,0,0,0,1.219-12.313l-1.68-1.679,22.988-18.391A111.9,111.9,0,0,1,375.272,423.109ZM322.019,368.94,291,393.753a8,8,0,0,0-.659,11.9l1.1,1.1L264,425.052v-6.979l33.386-60.095.024-.02a7.977,7.977,0,0,0,1.9-2.645ZM158.479,280a28,28,0,0,1-27.937-29.862L136,168.266a120.266,120.266,0,0,1,240,0l5.458,81.871A28,28,0,0,1,353.521,280H329.739a153.809,153.809,0,0,0,11.541-35.769A30.217,30.217,0,0,0,344,184.647V168a8,8,0,0,0-8-8H300.944l-13.789-27.578A8,8,0,0,0,272,136v24H236.944l-13.789-27.578a8,8,0,0,0-14.916,1.638L201.754,160H176a8,8,0,0,0-8,8v16.647a30.217,30.217,0,0,0,2.72,59.584A153.809,153.809,0,0,0,182.261,280ZM344,201.452a14.195,14.195,0,0,1-.441,25.748q.433-5.671.441-11.373ZM168.441,227.2A14.195,14.195,0,0,1,168,201.452v14.375Q168,221.524,168.441,227.2ZM211.2,297.427a136.851,136.851,0,0,1-27.2-81.6V176h24a8,8,0,0,0,7.761-6.06l2.755-11.02,6.329,12.658A8,8,0,0,0,232,176h48a8,8,0,0,0,7.845-6.422l1,2A8,8,0,0,0,296,176h32v39.827a136.851,136.851,0,0,1-27.2,81.6,56,56,0,0,1-89.6,0Zm44.8,38.4a71.583,71.583,0,0,0,20.71-3.075l1.39,8.333a31.922,31.922,0,0,0,4.14,11.21L256,399.527l-26.242-47.236a32.162,32.162,0,0,0,4.141-11.2l1.39-8.335A71.6,71.6,0,0,0,256,335.827Zm-42.977,19.288L248,418.073v8.983l-29.267-14.634,4.422-8.844A8,8,0,0,0,221,393.753L189.981,368.94Zm-76.295,67.994a111.906,111.906,0,0,1,44.306-40.836l24.918,19.934-5.107,10.215a8,8,0,0,0,3.577,10.733l43.517,21.759L248,479.827H169.6a41.613,41.613,0,0,1,2.8-30.048l3.1-6.2a7.994,7.994,0,0,0,.845-3.578V424a8,8,0,0,0-16,0v14.111l-2.256,4.513a57.579,57.579,0,0,0-4.947,37.2H120.021A111.9,111.9,0,0,1,136.728,423.109ZM233,223.827a9,9,0,1,1-9-9A9,9,0,0,1,233,223.827Zm63-1a9,9,0,1,1-9-9A9,9,0,0,1,296,222.827Zm-53.6,25.585a15.9,15.9,0,0,1-.7-15.567l2.212-4.424a8,8,0,0,1,14.311,7.158L256.01,240h3.056a8,8,0,0,1,0,16h-3.055A15.9,15.9,0,0,1,242.4,248.412Zm-28.743-42.755a8,8,0,0,1-11.314-11.314A23.667,23.667,0,0,1,229.7,189.9l5.881,2.941a8,8,0,1,1-7.156,14.31l-5.881-2.94A7.688,7.688,0,0,0,213.657,205.657Zm59.188-2.079a8,8,0,0,1,3.577-10.733L282.3,189.9a23.668,23.668,0,0,1,27.354,4.439,8,8,0,1,1-11.314,11.314,7.688,7.688,0,0,0-8.884-1.442l-5.881,2.94a7.993,7.993,0,0,1-10.733-3.577ZM256,283.752a43.8,43.8,0,0,1-19.578-4.6,8,8,0,1,1,7.156-14.31,27.917,27.917,0,0,0,24.844,0,8,8,0,1,1,7.156,14.31A43.8,43.8,0,0,1,256,283.752Z" style="fill:url(#linear-gradient)"/></g></svg>
