<?xml version="1.0" encoding="UTF-8"?>
<svg xmlns="http://www.w3.org/2000/svg" xmlns:xlink="http://www.w3.org/1999/xlink" viewBox="0 0 512 512" width="512" height="512"><defs><linearGradient id="linear-gradient" x1="108.073" y1="463.387" x2="403.927" y2="167.534" gradientUnits="userSpaceOnUse"><stop offset="0" stop-color="#41dfd0"/><stop offset="1" stop-color="#ee83ef"/></linearGradient></defs><g id="gradient"><path d="M215,200a9,9,0,1,1,9,9A9,9,0,0,1,215,200Zm72,8a9,9,0,1,0-9-9A9,9,0,0,0,287,208Zm-34.056,32H256a8,8,0,0,0,0-16h-3.055l2.211-4.423a8,8,0,0,0-14.312-7.154l-2.21,4.422A16,16,0,0,0,252.944,240ZM246,248a8,8,0,0,0,0,16h6.687a35.082,35.082,0,0,0,24.97-10.343,8,8,0,0,0-11.314-11.314A19.187,19.187,0,0,1,252.687,248ZM366.391,360H354.654A141.729,141.729,0,0,1,400,464a8,8,0,0,1-8,8H120a8,8,0,0,1-8-8,141.729,141.729,0,0,1,45.346-104H135.218a16.145,16.145,0,0,1-13.433-25.1,11.3,11.3,0,0,0-.354-13.017l-5.823-7.78a27.37,27.37,0,0,1,2.546-35.571l.277-.277a10.9,10.9,0,0,0,.832-14.519,37.852,37.852,0,0,1-7.952-21.284,45,45,0,0,1,1.4-14.153l.057-.217a93.868,93.868,0,0,1,36.343-53.016l19.034-13.582A7.969,7.969,0,0,1,168,160V144a88,88,0,0,1,176,0v16c0,.219-.016.434-.033.649a177.246,177.246,0,0,1,41.939,47.821,36.9,36.9,0,0,1,3.368,30.688,20.805,20.805,0,0,0,1.137,15.987l5.277,10.555a36.7,36.7,0,0,1,2,28.2l-1.159,3.476a21.077,21.077,0,0,0,0,13.244l1.722,5.167A33.588,33.588,0,0,1,366.391,360ZM330.425,170.4l-3.2-2.4h-17.79l15.8,42.127A45.755,45.755,0,0,1,326.79,237.4l-2.455,9.816a29.908,29.908,0,0,0,.643,16.734l.5,1.515a46.235,46.235,0,0,1,0,29.061,30.129,30.129,0,0,0,0,18.94L335.661,344h30.73a17.59,17.59,0,0,0,16.687-23.151l-1.723-5.167a37.188,37.188,0,0,1,0-23.364l1.159-3.476a20.805,20.805,0,0,0-1.136-15.987L376.1,262.3a36.7,36.7,0,0,1-2-28.2,20.92,20.92,0,0,0-1.91-17.4A161.409,161.409,0,0,0,330.425,170.4Zm-8.39,242.248a57.738,57.738,0,0,1-7.122-41.117l3.6-18c-.249-.136-.492-.28-.742-.415l-14.686-7.908-4.127,39.621a8,8,0,0,1-2.8,5.29,91.591,91.591,0,0,0-25.95,35.915l-6.775,16.937a8,8,0,0,1-14.856,0L241.8,426.034a91.591,91.591,0,0,0-25.95-35.915,8,8,0,0,1-2.8-5.29l-4.127-39.621-14.686,7.908c-.56.3-1.107.621-1.662.93l3.5,17.483a57.738,57.738,0,0,1-7.122,41.117A41.665,41.665,0,0,0,187.4,452.9l1.548,3.1H322.032l1.549-3.1A41.665,41.665,0,0,0,322.035,412.646ZM203.768,329.808,208.983,327a18.12,18.12,0,0,0,9.222-12.889l1.951-11.712a72.023,72.023,0,0,1-19.931-16.881,26.13,26.13,0,0,1-1.907,3.428l-.881,1.322a10.307,10.307,0,0,0,0,11.466l3.317,4.974A26.405,26.405,0,0,1,203.768,329.808ZM220.944,168l-18.867,37.735a95.971,95.971,0,0,0-9.615,33.456A135.909,135.909,0,0,0,211.2,273.6a56,56,0,0,0,89.6,0c2.627-3.5,5.1-7.173,7.377-10.92a45.862,45.862,0,0,1,.636-19.34l2.454-9.817a29.807,29.807,0,0,0-1.013-17.778L292.35,168Zm55.767,140.925a71.285,71.285,0,0,1-41.422,0l-1.3,7.816a34.209,34.209,0,0,1-9.982,18.89l4.625,44.4A107.719,107.719,0,0,1,256,418.5a107.719,107.719,0,0,1,27.37-38.464l4.625-44.4a34.209,34.209,0,0,1-9.982-18.89Zm38.63,24.711-5.036-15.106a46.239,46.239,0,0,1,0-29.06,29.39,29.39,0,0,0,.845-3.191,72.092,72.092,0,0,1-19.306,16.12l1.951,11.712A18.12,18.12,0,0,0,303.017,327ZM184,152H328v-8a72,72,0,0,0-144,0Zm-5.868,192c.438-.276.887-.538,1.329-.81l8.625-17.25a10.358,10.358,0,0,0-.645-10.357l-3.316-4.974a26.265,26.265,0,0,1,0-29.218l.881-1.322a10.365,10.365,0,0,0-1.292-13.042A26.16,26.16,0,0,1,176,248.4a112.015,112.015,0,0,1,11.766-49.82L203.056,168h-16.5c-4.716,3.364-16.688,11.9-28.156,20.089a77.855,77.855,0,0,0-30.144,43.98l-.057.22a29.021,29.021,0,0,0-.928,9.108,21.662,21.662,0,0,0,4.494,12.36,26.89,26.89,0,0,1-2.025,35.812l-.277.277a11.288,11.288,0,0,0-1.05,14.671l5.823,7.78a27.328,27.328,0,0,1,.857,31.478.208.208,0,0,0,.052.225Zm-49.88,112h43a57.554,57.554,0,0,1,3.97-51.586,41.774,41.774,0,0,0,5.153-29.747L178.13,363.44A125.738,125.738,0,0,0,128.252,456Zm204.727-93.221L330.6,374.667a41.777,41.777,0,0,0,5.152,29.747A57.554,57.554,0,0,1,339.725,456h44.023A125.736,125.736,0,0,0,332.979,362.779Z" style="fill:url(#linear-gradient)"/></g></svg>
