<?xml version="1.0" encoding="UTF-8"?>
<svg xmlns="http://www.w3.org/2000/svg" xmlns:xlink="http://www.w3.org/1999/xlink" viewBox="0 0 512 512" width="512" height="512"><defs><linearGradient id="linear-gradient" x1="86.53" y1="481.844" x2="425.469" y2="142.905" gradientUnits="userSpaceOnUse"><stop offset="0" stop-color="#41dfd0"/><stop offset="1" stop-color="#ee83ef"/></linearGradient></defs><g id="gradient"><path d="M327.141,337.947l-23.921-7.973-2.861-20.026a82.979,82.979,0,0,0,41.525-54.5,31.988,31.988,0,0,0,18.151-52.566,85.181,85.181,0,0,0,22.193-45.82q.166-1.194.3-2.4l.951-8.553A84.931,84.931,0,0,0,353.362,71.3l-6.743-5.619a85.019,85.019,0,0,0-22.887-13.646c-.108-.044-.219-.085-.33-.123l-7.559-2.645a74.97,74.97,0,0,0-55.487,2.3l-3.545,1.581a75.751,75.751,0,0,0-54.154-5.205l-13.583,3.82a8.039,8.039,0,0,0-.806.273,85.019,85.019,0,0,0-22.887,13.646L158.639,71.3a84.934,84.934,0,0,0-30.118,74.816,114.659,114.659,0,0,0,23.046,57.222,31.995,31.995,0,0,0,18.549,52.113,82.979,82.979,0,0,0,41.525,54.5l-2.861,20.026-23.921,7.973A153.921,153.921,0,0,0,80.028,471.336,8,8,0,0,0,88,480H424a8,8,0,0,0,7.972-8.664A153.918,153.918,0,0,0,327.141,337.947ZM116.73,410.508s33.022,13.17,33.388,13.259l-4.866,16.217-37.611-12.537A137.875,137.875,0,0,1,116.73,410.508ZM169.152,416h173.7l4.8,16h-183.3Zm-9.593,31.978c.147.008.292.022.441.022H352.448l4.8,16h-202.5Zm202.323-24.211c.366-.089,33.388-13.259,33.388-13.259a137.739,137.739,0,0,1,9.089,16.939l-37.611,12.537Zm-17.9-185.923c0-.362.015-.723.015-1.085V219.271l4.789-4.875a15.965,15.965,0,0,1-4.8,23.448ZM168.881,83.588l6.743-5.618a69.04,69.04,0,0,1,18.2-10.926l13.161-3.7a59.6,59.6,0,0,1,45.519,5.644,8,8,0,0,0,7.239.367l7.125-3.176a59.036,59.036,0,0,1,43.689-1.811l7.388,2.585A69.068,69.068,0,0,1,336.376,77.97l6.743,5.619a68.975,68.975,0,0,1,24.457,60.756l-.95,8.554c-.072.651-.153,1.3-.244,1.946a69.268,69.268,0,0,1-19.348,38.506l-4.439,4.518a117.7,117.7,0,0,0-3.5-15.482L335.666,170.9a8,8,0,0,0-14.066-2.512L315.892,176a40.128,40.128,0,0,1-17.729,13.346l8.884-17.768a8,8,0,0,0-12.812-9.235l-20.687,20.686A30.664,30.664,0,0,1,264,189.5v-16.31a8,8,0,0,0-14.4-4.8L243.892,176a40.122,40.122,0,0,1-17.729,13.346l8.884-17.768a8,8,0,0,0-12.812-9.235l-20.687,20.686A30.426,30.426,0,0,1,179.892,192a8,8,0,0,0-7.843,6.419l-.695,3.45-5.985-6.828a98.7,98.7,0,0,1-20.945-50.695A68.978,68.978,0,0,1,168.881,83.588ZM160,224a15.914,15.914,0,0,1,2.279-8.211L168,222.317v14.442c0,.362.01.723.015,1.085A16,16,0,0,1,160,224Zm24,12.759V220.105l2.534-12.572A46.12,46.12,0,0,0,204,201.306,8,8,0,0,0,211.892,208c.539,0,1.076-.021,1.614-.036a11,11,0,1,0,12.431-1.784A56.535,56.535,0,0,0,248,194.783v5a8,8,0,0,0,8.851,7.954,46.735,46.735,0,0,0,19.143-6.457,7.975,7.975,0,0,0,6.624,6.608,11,11,0,1,0,15.034-1.632,56.42,56.42,0,0,0,27.053-15.917A101.46,101.46,0,0,1,328,216v20.759A67.24,67.24,0,0,1,260.759,304h-9.518A67.24,67.24,0,0,1,184,236.759ZM251.241,320h9.518a83.186,83.186,0,0,0,24.351-3.662l2.971,20.794a8,8,0,0,0,5.389,6.458l2.449.816a88.387,88.387,0,0,1-79.838,0l2.449-.816a8,8,0,0,0,5.389-6.459l2.971-20.794A83.154,83.154,0,0,0,251.241,320Zm-61.322,33.127,6.224-2.075a104.275,104.275,0,0,0,119.714,0l6.224,2.075a137.92,137.92,0,0,1,63.575,43.994l-28.364,11.346L351.663,389.7a8,8,0,0,0-15.326,4.6l1.711,5.7h-164.1l1.711-5.7a8,8,0,0,0-15.326-4.6l-5.629,18.766-28.364-11.345A137.914,137.914,0,0,1,189.919,353.127Zm-87.969,89.29,38.7,12.9-2.6,8.683H96.968A138.076,138.076,0,0,1,101.95,442.417Zm272,21.583-2.605-8.683,38.7-12.9A138.076,138.076,0,0,1,415.032,464ZM256,271.976a43.812,43.812,0,0,1-19.578-4.6,8,8,0,0,1,7.156-14.311,27.91,27.91,0,0,0,24.844,0,8,8,0,0,1,7.156,14.311A43.812,43.812,0,0,1,256,271.976Zm-18.288-39.6a16.042,16.042,0,0,1,4.48-13.877l8.151-8.151a8,8,0,1,1,11.314,11.314l-8.152,8.152,6.073,3.036a8,8,0,1,1-7.156,14.31l-6.072-3.036A16.037,16.037,0,0,1,237.712,232.371Z" style="fill:url(#linear-gradient)"/></g></svg>
